<svg width="188" height="58" viewBox="0 0 188 58" fill="none" xmlns="http://www.w3.org/2000/svg">
<path d="M74.16 21.04V15H96.32V21.04H88.6V43H81.84V21.04H74.16ZM99.4775 37.24C99.4775 37.72 99.5975 38.1333 99.8375 38.48C100.078 38.8 100.398 39.0533 100.798 39.24C101.198 39.4 101.638 39.48 102.118 39.48C102.811 39.48 103.451 39.3333 104.038 39.04C104.624 38.7467 105.104 38.3067 105.478 37.72C105.851 37.1333 106.038 36.4133 106.038 35.56L106.678 37.96C106.678 39.1333 106.358 40.1333 105.718 40.96C105.078 41.76 104.251 42.3733 103.238 42.8C102.224 43.2 101.131 43.4 99.9575 43.4C98.7842 43.4 97.6908 43.1867 96.6775 42.76C95.6908 42.3067 94.8908 41.64 94.2775 40.76C93.6908 39.88 93.3975 38.8133 93.3975 37.56C93.3975 35.8 94.0242 34.4133 95.2775 33.4C96.5308 32.36 98.3042 31.84 100.598 31.84C101.718 31.84 102.718 31.9467 103.598 32.16C104.504 32.3733 105.278 32.64 105.918 32.96C106.558 33.28 107.038 33.6133 107.358 33.96V36.64C106.718 36.16 105.971 35.8 105.118 35.56C104.291 35.2933 103.411 35.16 102.478 35.16C101.758 35.16 101.184 35.24 100.758 35.4C100.331 35.56 100.011 35.8 99.7975 36.12C99.5842 36.4133 99.4775 36.7867 99.4775 37.24ZM96.7975 30.24L94.7575 26.2C95.7975 25.6933 97.0508 25.2133 98.5175 24.76C99.9842 24.3067 101.584 24.08 103.318 24.08C104.944 24.08 106.398 24.32 107.678 24.8C108.958 25.2533 109.971 25.92 110.718 26.8C111.464 27.68 111.838 28.76 111.838 30.04V43H106.038V31.4C106.038 30.9467 105.958 30.56 105.798 30.24C105.664 29.8933 105.451 29.6 105.158 29.36C104.864 29.12 104.491 28.9467 104.038 28.84C103.611 28.7333 103.118 28.68 102.558 28.68C101.731 28.68 100.918 28.7733 100.118 28.96C99.3442 29.1467 98.6642 29.3733 98.0775 29.64C97.4908 29.88 97.0642 30.08 96.7975 30.24ZM117.36 36.32C118.293 37.0933 119.133 37.7067 119.88 38.16C120.653 38.5867 121.333 38.8933 121.92 39.08C122.507 39.24 123.013 39.32 123.44 39.32C124.053 39.32 124.507 39.1867 124.8 38.92C125.093 38.6533 125.24 38.3067 125.24 37.88C125.24 37.48 125.12 37.1467 124.88 36.88C124.64 36.5867 124.227 36.3067 123.64 36.04C123.08 35.7733 122.307 35.4933 121.32 35.2C120.44 34.88 119.6 34.5067 118.8 34.08C118.027 33.6267 117.387 33.0267 116.88 32.28C116.373 31.5333 116.12 30.5733 116.12 29.4C116.12 28.28 116.413 27.3333 117 26.56C117.613 25.7867 118.427 25.2 119.44 24.8C120.48 24.4 121.667 24.2 123 24.2C124.067 24.2 125.053 24.32 125.96 24.56C126.893 24.8 127.76 25.12 128.56 25.52C129.387 25.92 130.16 26.3867 130.88 26.92L128.72 30.84C127.947 30.12 127.067 29.5333 126.08 29.08C125.093 28.6 124.187 28.36 123.36 28.36C122.8 28.36 122.373 28.4667 122.08 28.68C121.813 28.8933 121.68 29.1733 121.68 29.52C121.68 29.92 121.84 30.2533 122.16 30.52C122.507 30.7867 122.987 31.04 123.6 31.28C124.24 31.4933 125.013 31.7733 125.92 32.12C126.88 32.4667 127.76 32.8667 128.56 33.32C129.387 33.7733 130.04 34.3467 130.52 35.04C131.027 35.7333 131.28 36.6533 131.28 37.8C131.28 39.7733 130.667 41.2667 129.44 42.28C128.24 43.2667 126.547 43.76 124.36 43.76C123.027 43.76 121.787 43.6 120.64 43.28C119.52 42.9867 118.48 42.5867 117.52 42.08C116.56 41.5467 115.667 40.96 114.84 40.32L117.36 36.32ZM134.562 11.8H140.362V43H134.562V11.8ZM147.042 24.6H154.282L146.402 32.2L155.082 43H147.962L139.162 32.2L147.042 24.6ZM157.688 11.8H163.768V43H157.688V11.8ZM187.309 24.6L175.309 51.8H169.229L173.709 41.52L165.749 24.6H172.389L178.349 39.36L175.229 39.32L181.109 24.6H187.309Z" fill="#03045E"/>
<path d="M28 57C24.1267 57 20.4867 56.2645 17.08 54.7936C13.6733 53.3227 10.71 51.3281 8.19 48.81C5.67 46.2919 3.67547 43.3285 2.2064 39.92C0.737337 36.5115 0.00187021 32.8715 3.5443e-06 29C-0.00186312 25.1285 0.733604 21.4885 2.2064 18.08C3.6792 14.6715 5.67374 11.7081 8.19 9.19C10.7063 6.67187 13.6696 4.67733 17.08 3.2064C20.4904 1.73547 24.1304 1 28 1C31.0333 1 33.9033 1.44333 36.61 2.33C39.3167 3.21667 41.8133 4.45333 44.1 6.04L40.04 10.17C38.2667 9.05 36.3767 8.17547 34.37 7.5464C32.3633 6.91733 30.24 6.60187 28 6.6C21.7933 6.6 16.5079 8.78213 12.1436 13.1464C7.77934 17.5107 5.59814 22.7952 5.6 29C5.60187 35.2048 7.784 40.4903 12.1464 44.8564C16.5088 49.2225 21.7933 51.4037 28 51.4C34.2067 51.3963 39.4921 49.2151 43.8564 44.8564C48.2207 40.4977 50.4019 35.2123 50.4 29C50.4 28.16 50.3533 27.32 50.26 26.48C50.1667 25.64 50.0267 24.8233 49.84 24.03L54.39 19.48C54.9033 20.9733 55.3 22.5133 55.58 24.1C55.86 25.6867 56 27.32 56 29C56 32.8733 55.2645 36.5133 53.7936 39.92C52.3227 43.3267 50.3281 46.29 47.81 48.81C45.2919 51.33 42.3285 53.3255 38.92 54.7964C35.5115 56.2673 31.8715 57.0019 28 57ZM24.08 41.88L12.18 29.98L16.1 26.06L24.08 34.04L52.08 5.97L56 9.89L24.08 41.88Z" fill="#03045E"/>
</svg>
